Coordinates
version=1
nRows=17
nColumns=34
inDegrees=yes

Units are S.I. units (second, meters, Newtons, ...)
If the header above contains a line with 'inDegrees', this indicates whether rotational values are in degrees (yes) or radians (no).

endheader
time	pelvis_tilt	pelvis_list	pelvis_rotation	pelvis_tx	pelvis_ty	pelvis_tz	hip_flexion_r	hip_adduction_r	hip_rotation_r	knee_angle_r	ankle_angle_r	subtalar_angle_r	mtp_angle_r	hip_flexion_l	hip_adduction_l	hip_rotation_l	knee_angle_l	ankle_angle_l	subtalar_angle_l	mtp_angle_l	lumbar_extension	lumbar_bending	lumbar_rotation	arm_flex_r	arm_add_r	arm_rot_r	elbow_flex_r	pro_sup_r	arm_flex_l	arm_add_l	arm_rot_l	elbow_flex_l	pro_sup_l
      5.88333330	    -24.26757428	     -1.34621652	      1.59321365	      0.41105281	      0.49549928	     -0.10791574	     99.09319767	    -10.32072514	      4.11738697	    115.27771888	     42.22149550	     -9.79388089	      0.00000000	    102.58381070	    -13.57906904	      5.15679203	    113.75225604	     33.87632129	    -10.78162021	      0.00000000	    -26.60425794	      1.13433685	      0.45900633	    105.04026502	     -2.23880008	     65.95747107	    109.78051644	     87.81285350	    116.42137157	      1.27177557	     82.69023960	    115.15834243	     77.14241359
      5.90000000	    -24.50705431	     -1.27269186	      1.27239706	      0.41403065	      0.48890619	     -0.11093890	    100.32268608	    -10.44701246	      4.44573217	    116.39028038	     42.20691027	     -9.37839878	      0.00000000	    103.69317781	    -13.73249623	      5.46922835	    115.05283334	     34.13504865	    -10.59817020	      0.00000000	    -26.23737377	      1.20773409	      0.44639262	    104.63226167	     -2.20391847	     66.70826137	    110.63524646	     87.77685324	    115.78699234	      1.14164421	     82.82779609	    115.31684005	     76.98168422
      5.91666670	    -24.43073894	     -1.13913296	      0.86527076	      0.41339918	      0.48908577	     -0.10955095	    100.68419539	    -10.27373515	      4.63833999	    116.89527471	     41.93027920	     -9.04358570	      0.00000000	    103.95845613	    -14.10275610	      5.56356031	    115.72949258	     34.10891695	    -10.76976467	      0.00000000	    -26.64388151	      1.01937941	      0.67207604	    104.31862903	     -2.09671077	     66.98559908	    110.92788556	     87.77821944	    115.15834320	      0.95212086	     82.94187976	    115.23808984	     76.93439192
      5.93333330	    -24.35066951	     -0.98208267	      0.52001223	      0.40798778	      0.48443826	     -0.10870172	    101.30491077	    -10.05589594	      4.76317371	    117.30214491	     41.82030214	     -8.86956273	      0.00000000	    104.42701028	    -14.32895516	      5.66942707	    116.28488415	     34.08034072	    -10.90100957	      0.00000000	    -27.01132679	      0.78395239	      0.72970823	    104.34896998	     -1.79623809	     67.47058876	    111.18699735	     87.79224587	    115.04676920	      0.80155408	     82.82143576	    114.94294895	     76.88400074
      5.95000000	    -24.30209036	     -0.83794945	      0.19770200	      0.40538686	      0.47971580	     -0.10687269	    102.07870518	     -9.78608207	      4.86463032	    117.84775790	     41.70416921	     -8.70816740	      0.00000000	    105.07825372	    -14.66355449	      5.89393992	    116.94746159	     33.62404222	    -11.11967110	      0.00000000	    -27.46769302	      0.56584060	      0.87251941	    104.70748071	     -1.50028040	     67.81539833	    111.37162294	     87.79800181	    115.41033676	      0.60618462	     82.57715988	    114.71019627	     76.83271575
      5.96666670	    -24.23007485	     -0.77149322	     -0.04548223	      0.40439257	      0.47730535	     -0.10601314	    102.66722065	     -9.45840486	      4.82097567	    118.16417059	     41.50663056	     -8.85168769	      0.00000000	    105.65756527	    -14.90153508	      6.10734092	    117.30690721	     33.17892445	    -11.56738791	      0.00000000	    -28.12278870	      0.49681729	      0.98847045	    105.45112206	     -1.37183620	     67.46361960	    111.07282599	     87.73080556	    116.28893220	      0.44769148	     82.20079039	    114.63099195	     76.74204307
      5.98333330	    -23.93154650	     -0.79541690	      0.00301336	      0.40067104	      0.47569941	     -0.10356550	    102.97387968	     -9.26317499	      4.81182184	    118.48915876	     41.22113490	     -9.03627652	      0.00000000	    106.06511560	    -15.11742604	      6.31900474	    117.54259199	     32.43657686	    -11.76019340	      0.00000000	    -28.99446307	      0.46326481	      1.03027051	    106.15552185	     -1.19660477	     66.93317576	    110.84691093	     87.62786467	    117.24643860	      0.26679954	     81.93869733	    114.60718687	     76.65738127
      6.00000000	    -23.76391686	     -0.80001086	      0.03061835	      0.40878638	      0.47500367	     -0.10466506	    102.80608018	     -9.19902753	      4.94124025	    118.76800150	     41.21491859	     -9.06898123	      0.00000000	    106.13228675	    -15.44174924	      6.39150593	    117.82660475	     32.02218045	    -11.73676844	      0.00000000	    -29.29866115	      0.46236746	      1.09203787	    105.90185724	     -1.04524006	     67.27402312	    111.11026718	     87.62086188	    116.91049623	      0.05697061	     82.12807967	    114.71979474	     76.63158642
      6.01666670	    -23.60170358	     -0.77342345	      0.08416279	      0.40194200	      0.47265369	     -0.10389606	    103.00005252	     -9.19768840	      4.92958450	    118.93497187	     41.15646911	     -9.11904850	      0.00000000	    106.35372016	    -15.45732636	      6.38156300	    118.00130394	     32.00759891	    -11.77062826	      0.00000000	    -29.57427189	      0.37803900	      1.15254261	    105.94559122	     -0.95146310	     67.37378152	    111.17393565	     87.62235490	    116.90000889	      0.03733984	     82.13575048	    114.72755603	     76.62749948
      6.03333330	    -23.54616068	     -0.84336613	      0.18718235	      0.40353571	      0.46930698	     -0.10444866	    103.38245735	     -9.24131153	      5.06603734	    119.41590530	     40.70269523	     -9.63944355	      0.00000000	    106.86359248	    -15.42602341	      6.58970665	    118.47297261	     31.70806457	    -11.83627178	      0.00000000	    -29.84539370	      0.56329043	      1.27836572	    106.93569154	     -0.97277586	     68.04906253	    111.71423636	     87.61231860	    117.21118855	      0.06882435	     81.71245673	    115.15395358	     76.56285362
      6.05000000	    -23.52001179	     -0.86561480	      0.32692352	      0.40390596	      0.46977364	     -0.10376204	    103.39868169	     -9.27361415	      5.11355534	    119.56052994	     40.69589429	     -9.92447362	      0.00000000	    106.97658861	    -15.44298228	      6.63098677	    118.61969928	     31.74829142	    -11.55318287	      0.00000000	    -29.79868815	      0.61331433	      1.26554266	    107.02594505	     -0.67130474	     69.71178477	    112.91431872	     87.67735233	    116.74214394	      0.13841040	     81.95081219	    115.33604610	     76.56500987
      6.06666670	    -23.51607548	     -0.85716023	      0.33207813	      0.40383510	      0.47108770	     -0.10435176	    103.40391291	     -9.26991938	      5.11159122	    119.56354326	     40.69571111	     -9.92445410	      0.00000000	    106.98289677	    -15.44657130	      6.63260606	    118.62306643	     31.74806625	    -11.55313077	      0.00000000	    -29.79908208	      0.61615491	      1.26518225	    107.02652503	     -0.67314991	     69.71143039	    112.91390137	     87.67732052	    116.74176217	      0.13898919	     81.95064852	    115.33596652	     76.56497067
      6.08333330	    -23.72068586	     -0.87437688	      0.33306676	      0.40512301	      0.47091360	     -0.10413939	    103.47928141	     -9.28058521	      5.14396132	    119.51309248	     40.52580569	     -9.88433078	      0.00000000	    106.99750778	    -15.46884535	      6.59634889	    118.57283576	     31.78107614	    -11.32160361	      0.00000000	    -29.59446914	      0.79613883	      1.80509027	    106.95384559	     -1.22549039	     70.38239222	    113.79644258	     87.72646540	    115.99626932	      0.63052401	     81.74766517	    115.31608168	     76.55578279
      6.10000000	    -23.70454905	     -0.88736950	      0.40389430	      0.40462192	      0.47297942	     -0.10373546	    103.23130042	     -9.30993515	      5.08362466	    119.32442713	     40.43414827	     -9.83434399	      0.00000000	    106.69483694	    -15.46097335	      6.50203893	    118.27533941	     31.77945239	    -11.25930422	      0.00000000	    -29.68200465	      0.93205465	      1.99341178	    106.88744020	     -1.78555834	     69.18600562	    113.34206959	     87.64985678	    116.05486386	      0.78765052	     81.65980555	    115.20410591	     76.55966340
      6.11666670	    -23.62016509	     -0.84894357	      0.37953987	      0.40283657	      0.47471027	     -0.10442423	    102.96070562	     -9.30276557	      5.08057625	    119.03306668	     40.39160422	     -9.69050315	      0.00000000	    106.33805145	    -15.38320594	      6.31552268	    117.94541874	     31.74490889	    -11.44021074	      0.00000000	    -29.77834348	      0.94872584	      2.12001989	    106.50651147	     -2.07033389	     68.56308273	    113.10619782	     87.59561027	    116.17239776	      0.73491883	     81.59718511	    115.05246527	     76.56470696
      6.13333330	    -23.59327767	     -0.78633851	      0.30213269	      0.40679998	      0.47665370	     -0.10424279	    102.54920510	     -9.30929247	      5.03778268	    118.73610910	     40.50039890	     -9.59068063	      0.00000000	    105.88543473	    -15.49783423	      6.16413886	    117.64951248	     31.73632361	    -11.65767594	      0.00000000	    -29.65877916	      0.89205840	      2.18787339	    106.06293319	     -2.26369863	     68.02863717	    112.91023346	     87.55131109	    115.98595067	      0.63282853	     81.66631205	    115.02262571	     76.57575276
      6.15000000	    -23.57891884	     -0.68924483	      0.29347479	      0.40671961	      0.47960923	     -0.10466017	    102.13871072	     -9.31424380	      5.05689373	    118.30981302	     40.46850109	     -9.53004789	      0.00000000	    105.35209674	    -15.39165419	      5.92915822	    117.23688211	     31.77775720	    -11.76958999	      0.00000000	    -29.54790755	      0.89610325	      2.27799324	    105.50993150	     -2.30825885	     67.49973239	    112.64080268	     87.51322828	    115.69845999	      0.81947967	     81.83012539	    115.18484059	     76.60205402
